<svg width="40" height="40" viewBox="0 0 40 40" fill="none" xmlns="http://www.w3.org/2000/svg">
<path d="M18.63 32.615C18.7829 32.8371 18.9875 33.0187 19.2262 33.1441C19.4648 33.2696 19.7304 33.3351 20 33.3351C20.2696 33.3351 20.5352 33.2696 20.7739 33.1441C21.0125 33.0187 21.2171 32.8371 21.37 32.615L36.37 10.9484C36.5436 10.6985 36.6455 10.4058 36.6644 10.1021C36.6834 9.79834 36.6187 9.49525 36.4775 9.2257C36.3363 8.95615 36.1239 8.73045 35.8634 8.57314C35.6029 8.41582 35.3043 8.3329 35 8.33338H5.00002C4.69642 8.33463 4.39891 8.41862 4.13948 8.57631C3.88006 8.73401 3.66852 8.95944 3.52763 9.22836C3.38674 9.49729 3.32183 9.79953 3.33987 10.1026C3.35791 10.4057 3.45822 10.6981 3.63002 10.9484L18.63 32.615Z" fill="#F69B12"/>
</svg>
